<svg width="262" height="20" viewBox="0 0 262 20" fill="none" xmlns="http://www.w3.org/2000/svg">
<path d="M0 16.528H2.01396V10.5644H11.3906V8.74521H2.01396V4.69561H12.4909V2.8392H0V16.528Z" fill="#060504"/>
<path d="M23.1478 2.37103C17.752 2.37103 13.9849 5.38157 13.9849 9.69347C13.9849 14.0054 17.7537 16.9973 23.1478 16.9973C28.5419 16.9973 32.3293 13.9935 32.3293 9.69347C32.3293 5.39342 28.5537 2.37103 23.1478 2.37103ZM30.2985 9.69347C30.2985 12.9122 27.3591 15.1595 23.1495 15.1595C18.9399 15.1595 15.9988 12.9122 15.9988 9.69347C15.9988 6.47478 18.9399 4.22744 23.1495 4.22744C27.3591 4.22744 30.2985 6.47478 30.2985 9.69347Z" fill="#060504"/>
<path d="M49.3295 14.3774C49.0603 14.8512 48.7137 15.122 48.3755 15.122C48.0794 15.122 47.8842 14.9223 47.6571 14.3825L46.7451 12.2502C46.4726 11.5716 46.1125 11.047 45.6532 10.6612C47.8421 10.2889 49.2218 8.85889 49.2218 6.90094C49.2218 4.4353 47.2634 2.84119 44.2348 2.84119H34.4746V16.5299H36.4886V11.0538H42.8182C43.6174 11.0538 44.3072 11.6038 44.711 12.5633L45.8097 15.1118C46.306 16.3015 47.1002 16.9039 48.1686 16.9039C49.0855 16.9039 49.8931 16.4352 50.5039 15.5467L50.6065 15.3978L49.491 14.0897L49.3261 14.3791L49.3295 14.3774ZM47.1927 6.97371C47.1927 8.33429 45.988 9.21427 44.1255 9.21427H36.4903V4.69591H44.1255C45.988 4.69591 47.1927 5.58943 47.1927 6.97371Z" fill="#060504"/>
<path d="M50.9238 4.69561H57.1878V16.528H59.2018V4.69561H65.4657V2.8392H50.9238V4.69561Z" fill="#060504"/>
<path d="M80.4407 2.8392V8.32214H69.9065V2.8392H67.8926V16.528H69.9065V10.1599H80.4407V16.528H82.4547V2.8392H80.4407Z" fill="#060504"/>
<path d="M110.924 8.2913H81.4385V10.1663H110.924V8.2913Z" fill="#060504"/>
<path d="M122.342 9.19159C123.355 8.64161 124.022 7.51625 124.022 6.26059C124.022 4.0251 122.172 2.46313 119.52 2.46313H109.797V16.1519H119.483C122.375 16.1519 124.396 14.5358 124.396 12.2224C124.396 10.8432 123.609 9.70774 122.343 9.1899L122.342 9.19159ZM119.37 8.30146H111.811V4.28232H119.352C120.965 4.28232 122.009 5.05061 122.009 6.24197C122.009 7.43333 120.923 8.29977 119.37 8.29977V8.30146ZM111.811 10.0817H119.296C121.171 10.0817 122.382 10.8856 122.382 12.1294C122.382 13.4476 121.142 14.3327 119.296 14.3327H111.811V10.0817Z" fill="#060504"/>
<path d="M141.766 14.001C141.497 14.4748 141.15 14.7456 140.812 14.7456C140.516 14.7456 140.321 14.5459 140.094 14.0061L139.182 11.8738C138.909 11.1952 138.549 10.6706 138.09 10.2848C140.277 9.91246 141.658 8.4825 141.658 6.52454C141.658 4.05891 139.7 2.46479 136.671 2.46479H126.911V16.1536H128.925V10.6774H135.255C136.054 10.6774 136.744 11.2274 137.148 12.1869L138.246 14.7354C138.743 15.9251 139.537 16.5275 140.605 16.5275C141.522 16.5275 142.33 16.0588 142.94 15.1703L143.043 15.0214L141.928 13.7133L141.763 14.0027L141.766 14.001ZM128.928 4.31952H136.564C138.426 4.31952 139.631 5.21303 139.631 6.59731C139.631 7.98159 138.428 8.83787 136.564 8.83787H128.928V4.31952Z" fill="#060504"/>
<path d="M147.147 2.46313H145.133V16.1519H147.147V2.46313Z" fill="#060504"/>
<path d="M158.4 2.46313H150.411V16.1519H158.4C160.905 16.1519 162.863 15.5579 164.219 14.3835C165.584 13.2023 166.277 11.4982 166.277 9.31682C166.277 4.89662 163.479 2.46313 158.4 2.46313ZM164.263 9.31682C164.263 12.5389 162.18 14.3141 158.4 14.3141H152.425V4.31955H158.4C162.18 4.31955 164.263 6.09474 164.263 9.31682Z" fill="#060504"/>
<path d="M191.007 14.3141V10.0022H201.466V8.183H191.007V4.31955H202.211V2.46313H189.03V16.1519H202.398V14.3141H191.007Z" fill="#060504"/>
<path d="M174.493 10.3599H184.254C184.085 12.9643 181.107 14.973 177.335 14.973C173.127 14.973 170.073 12.6749 170.073 9.50696C170.073 8.14807 170.577 6.92625 171.531 5.97181C172.776 4.72461 174.665 4.04093 176.859 4.04093C176.874 4.04093 176.891 4.04093 176.906 4.04093C180.232 4.04093 182.342 4.80076 183.547 6.43042L183.618 6.52518L185.975 6.51334L185.783 6.16642C184.324 3.5231 181.331 2.18282 176.888 2.18282C171.761 2.18282 168.041 5.26275 168.041 9.50527C168.041 13.7478 171.855 16.8091 177.111 16.8091C180.185 16.8091 182.766 15.721 184.301 13.8002L184.462 16.3403H186.219V8.57621H174.492V10.3582L174.493 10.3599Z" fill="#060504"/>
<rect x="209.818" y="0.745811" width="34.7945" height="17.3493" rx="8.67466" fill="#0F2D34"/>
<path d="M221.239 13.6903C217.828 13.6903 215.561 12.0388 215.561 9.55603C215.561 7.06249 217.828 5.42173 221.239 5.42173C224.65 5.42173 226.917 7.06249 226.917 9.55603C226.917 12.0388 224.65 13.6903 221.239 13.6903ZM221.239 11.6933C222.934 11.6933 224.057 10.8406 224.057 9.55603C224.057 8.27148 222.934 7.41871 221.239 7.41871C219.544 7.41871 218.411 8.27148 218.411 9.55603C218.411 10.8406 219.544 11.6933 221.239 11.6933ZM233.644 13.6472C231.798 13.6472 229.812 13.1074 228.776 12.3194L229.715 10.6247C230.633 11.3371 232.306 11.8553 233.795 11.8553C234.897 11.8553 235.587 11.607 235.587 11.186C235.587 10.8622 235.091 10.6463 233.925 10.5275L232.5 10.3656C230.039 10.1066 228.981 9.4265 228.981 8.05559C228.992 6.39323 230.87 5.45411 233.655 5.45411C235.264 5.45411 236.796 5.82112 237.768 6.43641L236.991 8.06639C236.138 7.50507 234.864 7.15965 233.677 7.17044C232.565 7.18123 231.766 7.4403 231.755 7.85049C231.745 8.14195 232.176 8.31466 233.18 8.41181L234.616 8.57373C237.228 8.8328 238.351 9.54524 238.351 10.9485C238.362 12.5569 236.516 13.6472 233.644 13.6472Z" fill="#F5F6F5"/>
</svg>
