<svg width="1203" height="88" viewBox="0 0 1203 88" fill="none" xmlns="http://www.w3.org/2000/svg">
    <path d="M0 84.77H11.97V49.53H67.7V38.78H11.97V14.85H74.24V3.88H0V84.77Z" fill="#9CE9E2"/>
    <path d="M137.58 1.11C105.51 1.11 83.12 18.9 83.12 44.38C83.12 69.86 105.52 87.54 137.58 87.54C169.64 87.54 192.15 69.79 192.15 44.38C192.15 18.97 169.71 1.11 137.58 1.11ZM180.08 44.38C180.08 63.4 162.61 76.68 137.59 76.68C112.57 76.68 95.09 63.4 95.09 44.38C95.09 25.36 112.57 12.08 137.59 12.08C162.61 12.08 180.08 25.36 180.08 44.38Z" fill="#9CE9E2"/>
    <path d="M293.19 72.06C291.59 74.86 289.53 76.46 287.52 76.46C285.76 76.46 284.6 75.28 283.25 72.09L277.83 59.49C276.21 55.48 274.07 52.38 271.34 50.1C284.35 47.9 292.55 39.45 292.55 27.88C292.55 13.31 280.91 3.89 262.91 3.89H204.9V84.78H216.87V52.42H254.49C259.24 52.42 263.34 55.67 265.74 61.34L272.27 76.4C275.22 83.43 279.94 86.99 286.29 86.99C291.74 86.99 296.54 84.22 300.17 78.97L300.78 78.09L294.15 70.36L293.17 72.07L293.19 72.06ZM280.49 28.31C280.49 36.35 273.33 41.55 262.26 41.55H216.88V14.85H262.26C273.33 14.85 280.49 20.13 280.49 28.31Z" fill="#9CE9E2"/>
    <path d="M302.67 14.85H339.9V84.77H351.87V14.85H389.1V3.88H302.67V14.85Z" fill="#9CE9E2"/>
    <path d="M478.1 3.88V36.28H415.49V3.88H403.52V84.77H415.49V47.14H478.1V84.77H490.07V3.88H478.1Z" fill="#9CE9E2"/>
    <path d="M659.28 36.1H484.03V47.18H659.28V36.1Z" fill="#9CE9E2"/>
    <path d="M727.14 41.42C733.16 38.17 737.13 31.52 737.13 24.1C737.13 10.89 726.13 1.66 710.37 1.66H652.58V82.55H710.15C727.34 82.55 739.35 73 739.35 59.33C739.35 51.18 734.67 44.47 727.15 41.41L727.14 41.42ZM709.48 36.16H664.55V12.41H709.37C718.96 12.41 725.16 16.95 725.16 23.99C725.16 31.03 718.71 36.15 709.48 36.15V36.16ZM664.55 46.68H709.04C720.18 46.68 727.38 51.43 727.38 58.78C727.38 66.57 720.01 71.8 709.04 71.8H664.55V46.68Z" fill="#9CE9E2"/>
    <path d="M842.59 69.84C840.99 72.64 838.93 74.24 836.92 74.24C835.16 74.24 834 73.06 832.65 69.87L827.23 57.27C825.61 53.26 823.47 50.16 820.74 47.88C833.74 45.68 841.95 37.23 841.95 25.66C841.95 11.09 830.31 1.67 812.31 1.67H754.3V82.56H766.27V50.2H803.89C808.64 50.2 812.74 53.45 815.14 59.12L821.67 74.18C824.62 81.21 829.34 84.77 835.69 84.77C841.14 84.77 845.94 82 849.57 76.75L850.18 75.87L843.55 68.14L842.57 69.85L842.59 69.84ZM766.29 12.63H811.67C822.74 12.63 829.9 17.91 829.9 26.09C829.9 34.27 822.75 39.33 811.67 39.33H766.29V12.63Z" fill="#9CE9E2"/>
    <path d="M874.57 1.66H862.6V82.55H874.57V1.66Z" fill="#9CE9E2"/>
    <path d="M941.45 1.66H893.97V82.55H941.45C956.34 82.55 967.98 79.04 976.04 72.1C984.15 65.12 988.27 55.05 988.27 42.16C988.27 16.04 971.64 1.66 941.45 1.66ZM976.3 42.16C976.3 61.2 963.92 71.69 941.45 71.69H905.94V12.63H941.45C963.92 12.63 976.3 23.12 976.3 42.16Z" fill="#9CE9E2"/>
    <path d="M1135.25 71.69V46.21H1197.41V35.46H1135.25V12.63H1201.84V1.66H1123.5V82.55H1202.95V71.69H1135.25Z" fill="#9CE9E2"/>
    <path d="M1037.1 48.32H1095.11C1094.11 63.71 1076.41 75.58 1053.99 75.58C1028.98 75.58 1010.83 62 1010.83 43.28C1010.83 35.25 1013.82 28.03 1019.49 22.39C1026.89 15.02 1038.12 10.98 1051.16 10.98C1051.25 10.98 1051.35 10.98 1051.44 10.98C1071.21 10.98 1083.75 15.47 1090.91 25.1L1091.33 25.66L1105.34 25.59L1104.2 23.54C1095.53 7.92 1077.74 0 1051.33 0C1020.86 0 998.75 18.2 998.75 43.27C998.75 68.34 1021.42 86.43 1052.66 86.43C1070.93 86.43 1086.27 80 1095.39 68.65L1096.35 83.66H1106.79V37.78H1037.09V48.31L1037.1 48.32Z" fill="#9CE9E2"/>
</svg>
